<svg width="12" height="10" viewBox="0 0 12 10" fill="none" xmlns="http://www.w3.org/2000/svg">
<path d="M9 9.5C9 8.43913 8.57857 7.42172 7.82843 6.67157C7.07828 5.92143 6.06087 5.5 5 5.5M5 5.5C3.93913 5.5 2.92172 5.92143 2.17157 6.67157C1.42143 7.42172 1 8.43913 1 9.5M5 5.5C6.38071 5.5 7.5 4.38071 7.5 3C7.5 1.61929 6.38071 0.5 5 0.5C3.61929 0.5 2.5 1.61929 2.5 3C2.5 4.38071 3.61929 5.5 5 5.5ZM11 8.99998C11 7.31498 10 5.74998 9.00002 4.99998C9.32873 4.75336 9.59158 4.42952 9.76531 4.05711C9.93903 3.6847 10.0183 3.27521 9.99603 2.86488C9.97379 2.45454 9.85073 2.05602 9.63776 1.70458C9.42479 1.35313 9.12847 1.05961 8.77502 0.849976" stroke="#14B8A6" stroke-linecap="round" stroke-linejoin="round"/>
</svg>
